<svg xmlns="http://www.w3.org/2000/svg" width="16" height="16" viewBox="0 0 16 16" fill="none">
  <rect width="16" height="16" rx="2.54681" fill="white"/>
  <path d="M13.1521 10.2371C13.2298 9.28975 12.5896 8.64965 11.6271 8.68577C10.8545 8.71485 10.1623 9.38909 10.119 10.1556C10.0855 10.746 11.1591 11.6262 11.1276 12.2257C11.0764 13.2033 9.33465 12.4927 8.69226 12.3539C8.69226 12.3539 8.03856 12.2127 8.20914 11.5354C8.34822 10.983 8.96155 10.1651 8.14503 9.90695C7.34404 9.65408 6.32545 10.22 5.8217 10.8079C5.54997 11.1248 5.10656 11.3275 4.49899 10.5973C3.93513 9.9195 3.58865 8.92807 4.00767 8.09214C4.37411 7.36107 5.16046 7.00313 5.84078 6.62184C6.63822 6.17491 7.41835 5.70221 8.23465 5.2881C8.82224 4.99008 9.52253 4.57773 10.1962 4.54844C11.16 4.50659 10.9147 5.85486 12.0699 5.7445C12.9068 5.66433 13.3576 4.68787 12.9013 3.98807C12.3181 3.09399 10.5999 4.76628 10.4746 3.85943C10.3716 3.11448 10.3144 1.95982 9.43646 2.1411C8.88169 2.25565 8.45802 2.59772 8.1457 3.0528C7.93342 3.36228 7.86421 3.84423 7.4758 3.9949C7.03283 4.16693 6.59607 3.76956 6.19413 3.65238C4.94929 3.28915 3.91406 4.69448 3.4631 5.63745C3.4631 5.63745 0.393793 12.6927 7.07209 13.9062C8.77433 14.2154 10.796 13.8267 12.0692 12.5729C12.5967 12.0535 13.0832 11.0801 13.1524 10.2371H13.1521Z" fill="black"/>
</svg>