<svg width="76" height="76" viewBox="0 0 76 76" fill="none" xmlns="http://www.w3.org/2000/svg">
<rect width="75.3884" height="75.3884" rx="12" fill="white"/>
<path d="M61.97 48.2364C62.3358 43.7725 59.3195 40.7565 54.7845 40.9267C51.1443 41.0637 47.8823 44.2406 47.6785 47.8523C47.5207 50.6338 52.5793 54.7811 52.4308 57.6062C52.1894 62.2122 43.9828 58.8641 40.956 58.2102C40.956 58.2102 37.8759 57.545 38.6797 54.3535C39.335 51.7506 42.2249 47.897 38.3776 46.6806C34.6035 45.4891 29.8042 48.1554 27.4306 50.9255C26.1503 52.4189 24.061 53.3738 21.1983 49.9333C18.5415 46.7398 16.909 42.0683 18.8833 38.1296C20.6099 34.685 24.315 32.9984 27.5205 31.2019C31.2778 29.0961 34.9537 26.8688 38.7999 24.9176C41.5685 23.5134 44.8681 21.5705 48.0422 21.4325C52.5834 21.2353 51.4275 27.5881 56.8707 27.0681C60.8141 26.6903 62.9378 22.0895 60.7879 18.7922C58.0402 14.5795 49.9444 22.4589 49.3539 18.1861C48.8689 14.676 48.5993 9.23553 44.4625 10.0897C41.8486 10.6294 39.8523 12.2412 38.3808 14.3854C37.3805 15.8436 37.0544 18.1144 35.2244 18.8243C33.1372 19.6349 31.0793 17.7626 29.1854 17.2105C23.32 15.499 18.4422 22.1206 16.3174 26.5637C16.3174 26.5637 1.85552 59.8065 33.3222 65.524C41.3427 66.9812 50.8683 65.1494 56.8676 59.2419C59.3529 56.7946 61.645 52.2083 61.9711 48.2364H61.97Z" fill="black"/>
</svg>
