<svg width="16" height="16" viewBox="0 0 16 16" fill="none" xmlns="http://www.w3.org/2000/svg">
<path d="M6.46028 7.4647C6.46028 7.4647 7.97147 7.35255 7.97147 5.58045C7.97147 3.80823 6.73513 2.94336 5.16903 2.94336H2.28628H2.20178H0.015625V12.8468H2.20178H2.28628H5.16903C5.16903 12.8468 8.315 12.9461 8.315 9.92373C8.315 9.92373 8.45216 7.4647 6.46028 7.4647ZM4.79809 4.70355H5.16903C5.16903 4.70355 5.86953 4.70355 5.86953 5.73395C5.86953 6.7642 5.45756 6.91361 4.99028 6.91361H2.28628V4.70355H4.79809ZM5.02341 11.0866H2.28628V8.44001H5.16903C5.16903 8.44001 6.21309 8.42633 6.21309 9.80011C6.21309 10.9585 5.43328 11.0778 5.02341 11.0866ZM12.5107 5.46305C8.70216 5.46305 8.70553 9.2682 8.70553 9.2682C8.70553 9.2682 8.44422 13.0539 12.5107 13.0539C12.5107 13.0539 15.8994 13.2475 15.8994 10.4204H14.1567C14.1567 10.4204 14.2148 11.485 12.5688 11.485C12.5688 11.485 10.8258 11.6018 10.8258 9.76205H15.9575C15.9575 9.76205 16.519 5.46305 12.5107 5.46305ZM10.8067 8.44001C10.8067 8.44001 11.0194 6.91361 12.5494 6.91361C14.0791 6.91361 14.0599 8.44001 14.0599 8.44001H10.8067ZM14.4659 4.7463H10.38V3.52677H14.4659V4.7463Z" fill="white"/>
</svg>
