<svg width="current" height="current" viewBox="0 0 54 39" fill="none" xmlns="http://www.w3.org/2000/svg">
<path d="M31.8643 24.0243V17.4604C31.8643 14.6274 29.6885 12.3279 26.9988 12.3279C24.3091 12.3279 22.1333 14.6231 22.1333 17.4604V24.0243L26.9988 27.6154L31.8643 24.0243Z" fill="white"/>
<path d="M6.12292 13.4501C4.36459 12.15 1.93587 12.6031 0.703435 14.4579C-0.528995 16.3128 -0.0994511 18.8748 1.65887 20.1749C3.41719 21.4749 5.84592 21.0218 7.07835 19.167C8.31078 17.3122 7.88124 14.7501 6.12292 13.4501Z" fill="white"/>
<path d="M27.0187 8.22415C29.1671 8.21465 30.9014 6.36978 30.8924 4.1035C30.8834 1.83723 29.1345 0.00774221 26.9861 0.0172352C24.8378 0.0267282 23.1035 1.8716 23.1125 4.13788C23.1215 6.40416 24.8704 8.23364 27.0187 8.22415Z" fill="white"/>
<path d="M53.2966 14.4579C52.0642 12.6031 49.6395 12.15 47.8771 13.4501C46.1188 14.7501 45.6893 17.3079 46.9217 19.167C48.1541 21.0261 50.5788 21.4749 52.3412 20.1749C54.0995 18.8748 54.529 16.317 53.2966 14.4579Z" fill="white"/>
<path d="M43.7335 21.5189C42.1919 19.1982 39.161 18.635 36.9611 20.2569L31.8668 24.0216V33.876C31.8668 33.876 31.8668 33.9056 31.8668 33.9183C31.8789 32.2879 31.1563 30.6787 29.7954 29.6708L27.0053 27.6085L24.2153 29.6708C22.8544 30.6787 22.1318 32.2879 22.1439 33.9183C22.1439 33.9056 22.1439 33.8887 22.1439 33.876V24.0216L17.0495 20.2569C14.8496 18.6308 11.8147 19.194 10.2772 21.5189C8.73566 23.8396 9.26958 27.041 11.4735 28.663L24.2233 38.0811C24.2233 38.0811 24.2434 38.0938 24.2514 38.1023C24.2233 38.0811 24.1992 38.0599 24.1711 38.0387C24.2153 38.0726 24.2635 38.1065 24.3076 38.1404C24.3839 38.1954 24.4602 38.2462 24.5365 38.2928C24.5405 38.2928 24.5485 38.3013 24.5525 38.3013C24.6127 38.3394 24.673 38.3733 24.7332 38.4072C24.8054 38.4495 24.8817 38.4876 24.954 38.5215C25.0302 38.5596 25.1065 38.5935 25.1828 38.6274C25.247 38.6528 25.3112 38.6782 25.3755 38.7036C25.4638 38.7375 25.5481 38.7671 25.6404 38.7968C25.6886 38.8095 25.7328 38.8222 25.7809 38.8349C25.797 38.8391 25.813 38.8433 25.8291 38.8476C25.9174 38.873 26.0098 38.8942 26.0981 38.9111C26.1342 38.9196 26.1663 38.9238 26.2024 38.928C26.2386 38.9365 26.2747 38.9407 26.3108 38.945C26.3911 38.9577 26.4714 38.9704 26.5517 38.9789C26.5918 38.9789 26.628 38.9831 26.6681 38.9873C26.7243 38.9873 26.7765 38.9958 26.8327 38.9958C26.8929 38.9958 26.9491 39 27.0093 39C27.0655 39 27.1258 39 27.182 38.9958C27.2382 38.9958 27.2904 38.9916 27.3466 38.9873C27.3867 38.9873 27.4228 38.9831 27.463 38.9789C27.5433 38.9704 27.6236 38.9577 27.7038 38.945C27.74 38.9407 27.7761 38.9323 27.8122 38.928C27.8484 38.9238 27.8805 38.9153 27.9166 38.9111C28.0089 38.8942 28.0973 38.8687 28.1856 38.8476C28.2016 38.8433 28.2177 38.8391 28.2338 38.8349C28.2819 38.8222 28.3261 38.8095 28.3743 38.7968C28.4626 38.7713 28.5509 38.7375 28.6392 38.7036C28.7034 38.6782 28.7677 38.6528 28.8319 38.6274C28.9082 38.5935 28.9844 38.5596 29.0607 38.5215C29.137 38.4834 29.2093 38.4453 29.2815 38.4072C29.3417 38.3733 29.4019 38.3352 29.4622 38.3013C29.4662 38.3013 29.4742 38.2928 29.4782 38.2928C29.5545 38.242 29.6348 38.1954 29.7111 38.1404C29.7592 38.1065 29.8034 38.0726 29.8476 38.0387C29.8195 38.0599 29.7954 38.0811 29.7673 38.1023C29.7753 38.0938 29.7873 38.0895 29.7954 38.0811L42.5452 28.663C44.7451 27.0368 45.279 23.8396 43.7415 21.5189H43.7335ZM23.015 36.8234C23.015 36.8234 23.007 36.8064 22.9989 36.7979C23.027 36.8403 23.0591 36.8826 23.0913 36.925C23.0672 36.8911 23.0391 36.8572 23.015 36.8234ZM30.9836 36.8234C30.9595 36.8572 30.9314 36.8911 30.9074 36.925C30.9355 36.8826 30.9676 36.8403 30.9997 36.7979C30.9957 36.8064 30.9917 36.8149 30.9836 36.8234Z" fill="white"/>
</svg>
