<svg width="97" height="20" viewBox="0 0 97 20" fill="none" xmlns="http://www.w3.org/2000/svg">
<g clip-path="url(#clip0_205_3420)">
<path d="M19.191 12.9756C19.1652 12.613 19.0749 12.1428 18.9976 11.7802C18.8944 11.2429 18.8041 10.7459 18.6622 10.1549C18.559 9.68482 18.443 9.21471 18.3398 8.664C18.2495 8.20732 18.0947 7.33425 17.9916 6.74325C17.8239 5.78959 17.3209 4.24493 17.1919 3.84198C16.9082 2.96891 16.7018 2.51223 16.4181 1.97495C15.6185 0.457155 14.2772 -0.45621 12.7682 0.20195C11.6461 0.685496 10.537 2.13613 9.63417 3.27784C9.0667 4.01659 8.47342 4.79564 7.97043 5.57468C7.39006 6.46118 6.20351 8.7043 6.20351 8.7043C6.16482 8.7043 5.59734 8.7446 5.45547 8.7446C4.50108 8.7446 3.54669 8.7446 2.59229 8.82519C1.89584 8.87891 1.1478 9.02666 0.683502 9.57737C0.683502 9.57737 0.154716 10.1281 0.0515381 10.4236C-0.012948 10.5982 -0.0387424 10.8668 0.0515381 11.0146C0.219202 11.3235 0.386866 11.4713 1.03173 11.4847C1.83135 11.4981 3.13397 11.5653 4.04968 11.5653C4.28183 11.5653 4.51398 11.5653 4.74613 11.5653C4.15285 13.2846 3.32743 14.8964 2.68257 16.6291C2.46332 17.1932 2.16668 17.7036 2.16668 18.3081C2.16668 18.4827 2.19248 18.6707 2.25696 18.8722C2.34724 19.1811 2.61809 19.7453 2.9921 19.9064C3.08239 19.9467 3.17267 19.9736 3.25005 19.9736C3.39192 19.9736 3.55958 19.8661 3.72725 19.6915C4.51398 18.9259 4.74613 18.2409 5.04276 17.341C5.14594 17.032 5.48127 16.0649 5.63603 15.6351C5.95847 14.7218 6.11323 14.3054 6.55174 13.2308C6.83548 12.5995 7.13211 12.0085 7.45454 11.3772C7.49323 11.3101 7.54482 11.2698 7.62221 11.2698C8.61529 11.2429 10.4467 11.1758 11.5559 11.122C11.8654 11.1086 12.7553 11.0952 13.8 11.122C14.6125 11.122 14.8833 11.122 15.4121 10.9743C15.6314 10.9071 15.7217 10.8265 15.7217 10.7325C15.7475 10.4504 14.9865 10.1684 14.7931 10.0609C14.3804 9.846 13.8645 9.56394 13.2454 9.40275C11.9428 9.06696 11.1431 8.94607 10.3048 8.85205C9.91791 8.81175 9.20856 8.7043 9.01511 8.69087C9.5181 7.8178 10.3048 6.77012 11.156 5.709C11.6332 5.13143 12.2007 4.64789 12.4845 4.40611C12.7424 4.17777 13.0261 4.05689 13.2583 4.03002C13.6065 3.97629 13.9289 4.08375 14.2385 4.45984C14.4835 4.74191 14.6641 5.21202 14.806 5.58811C14.9994 6.08509 15.18 6.58207 15.3218 7.01189C15.8764 8.78489 16.5213 11.0549 16.9727 12.2906C17.063 12.5458 17.308 13.0562 17.4757 13.3517C17.7981 13.9696 18.1334 14.5203 18.2237 14.668C18.443 15.0038 18.559 14.9904 18.6106 14.9904C19.191 14.9904 19.2297 13.392 19.191 12.9622V12.9756Z" fill="white"/>
<path d="M27.8968 3.00831C29.8959 3.00831 31.1727 4.76788 31.1727 7.3065C31.1727 9.84512 29.8959 11.5778 27.8968 11.5778C25.8978 11.5778 24.608 9.83169 24.608 7.3065C24.608 4.78132 25.9107 3.00831 27.8968 3.00831ZM27.8968 10.1272C28.8512 10.1272 29.5606 9.06607 29.5606 7.29307C29.5606 5.52007 28.8512 4.45895 27.8968 4.45895C26.9424 4.45895 26.2331 5.5335 26.2331 7.29307C26.2331 9.05264 26.9424 10.1272 27.8968 10.1272ZM34.1778 8.15271V14.7746H32.5398V2.16211H34.1778V6.70207H36.0737V8.15271H34.1778Z" fill="white"/>
<path d="M42.7933 9.64364C41.8002 9.24068 40.5492 8.01839 40.0333 6.83639C39.6206 8.12584 38.4211 9.44216 37.2088 9.99287L36.2415 8.66312C37.9568 7.92437 39.1692 6.17823 39.1692 4.16345V2.80684H40.8587V4.10972C40.8587 6.11107 42.2516 7.79005 43.6961 8.31389L42.7933 9.64364ZM38.5372 14.9895V10.6107H40.1623V13.5926H46.5206V14.9895H38.5372ZM46.1982 7.18561V11.5241H44.5731V2.16211H46.1982V5.73498H48.0554V7.18561H46.1982Z" fill="white"/>
<path d="M59.0179 6.68864V2.16211H57.3929V14.7612H59.0179V8.13927H60.8622V6.68864H59.0179Z" fill="white"/>
<path d="M51.4471 9.97911V3.23633H49.8349V11.4566C52.3885 11.4566 54.7874 11.2954 56.4125 10.8925V9.48213C54.9938 9.80449 53.1624 9.97911 51.4471 9.96568V9.97911Z" fill="white"/>
<path d="M62.9001 15.2986V10.6915H66.0857V9.3349H61.3395V7.92456H72.4827V9.3349H67.7108V10.6915H70.9351V15.2986H62.913H62.9001ZM64.5896 2.33691V5.47996H70.9738V6.87687H62.9646V2.35035H64.5896V2.33691ZM69.2971 12.0616H64.5251V13.9286H69.2971V12.0616Z" fill="white"/>
<path d="M77.8223 4.84848V5.09025C77.8223 7.8975 78.7122 9.58991 80.1309 10.4496L79.2281 11.739C78.4285 11.242 77.3322 9.88541 77.0356 8.75714C76.7518 9.95257 75.7072 11.4301 74.7528 12.0076L73.7726 10.8256C75.3718 9.65707 76.236 8.00496 76.236 5.14398V4.86191H74.1982V3.43813H79.7827V4.86191H77.8352L77.8223 4.84848ZM83.0328 14.7746V8.17957H82.0268V14.2105H80.4791V2.37702H82.0268V6.74236H83.0328V2.16211H84.5933V14.7746H83.0328Z" fill="white"/>
<path d="M92.4084 7.61514C91.08 7.91064 89.2486 8.03153 87.5075 8.00466V4.51239H91.454V3.12891H85.8953V9.44187C88.9133 9.50903 90.9768 9.30755 92.4084 8.99862V7.60171V7.61514Z" fill="white"/>
<path d="M89.2098 10.624H87.5718V15.0028H95.4778V13.5925H89.2098V10.624Z" fill="white"/>
<path d="M95.1685 5.62752V2.16211H93.5305V11.5107H95.1685V7.06473H96.9999V5.62752H95.1685Z" fill="white"/>
</g>
<defs>
<clipPath id="clip0_205_3420">
<rect width="97" height="20" fill="white"/>
</clipPath>
</defs>
</svg>
