<svg width="73" height="22" viewBox="0 0 73 22" fill="none" xmlns="http://www.w3.org/2000/svg">
<g clip-path="url(#clip0_205_3444)">
<path d="M50.3205 10.6082C49.1533 9.18084 47.4342 8.36523 45.6017 8.36523C44.1763 8.36523 42.7861 8.87499 41.6915 9.8001C39.097 11.9902 38.7364 15.9134 40.883 18.5528L40.8923 18.5679L40.9072 18.5792C41.9498 19.8479 43.4199 20.6295 45.0442 20.7825C45.2319 20.7995 45.4233 20.8089 45.6129 20.8089C47.0384 20.8089 48.4285 20.2992 49.5232 19.374C50.0361 18.9398 50.1067 18.1638 49.6812 17.6428C49.4507 17.3615 49.1106 17.1991 48.75 17.1991C48.4675 17.1991 48.1943 17.2992 47.9769 17.4823C47.3134 18.0411 46.4752 18.3489 45.6129 18.3489C44.9271 18.3489 44.2655 18.162 43.6875 17.8051L50.1644 12.3375C50.4134 12.128 50.5658 11.8316 50.5955 11.5049C50.6253 11.1783 50.5286 10.8593 50.3205 10.6063V10.6082ZM47.529 11.3671L42.1394 15.9153C41.5874 14.4256 42.0204 12.7189 43.2377 11.69C43.8994 11.1311 44.7394 10.8234 45.6017 10.8234C46.2875 10.8234 46.9492 11.0103 47.5271 11.3671H47.529Z" fill="white"/>
<path d="M71.2253 12.2033C72.1973 12.2033 72.9891 11.4217 72.9891 10.4626C72.9891 9.5035 72.1973 8.6709 71.2253 8.6709C70.2534 8.6709 69.5118 9.47518 69.5118 10.4626C69.5118 11.45 70.2812 12.2033 71.2253 12.2033Z" fill="white"/>
<path d="M72.913 17.15C72.7513 16.578 72.3016 15.8945 71.0768 15.8945C70.1327 15.8945 69.3633 16.6762 69.3633 17.6352C69.3633 18.5339 70.0323 19.2778 70.9021 19.3665V21.4981L71.1697 21.3281C72.5655 20.4389 73.2531 18.3527 72.913 17.15Z" fill="white"/>
<path d="M53.1247 20.7147C52.8961 20.7147 52.6972 20.6297 52.5337 20.4636C52.3701 20.2974 52.2865 20.0954 52.2865 19.8632C52.2865 19.631 52.3701 19.4308 52.5337 19.2628C52.6972 19.0967 52.8961 19.0117 53.1247 19.0117H55.0352C55.0873 19.0117 55.1281 18.9683 55.1281 18.9173V10.5743C55.1281 10.5215 55.0854 10.4799 55.0352 10.4799H53.1247C52.8961 10.4799 52.6972 10.395 52.5337 10.2288C52.3701 10.0627 52.2865 9.86067 52.2865 9.62845C52.2865 9.39623 52.3701 9.1961 52.5337 9.02807C52.6972 8.86004 52.8961 8.77697 53.1247 8.77697H56.0853C56.3436 8.77697 56.5703 8.87326 56.7599 9.06394C56.9476 9.25463 57.0424 9.48496 57.0424 9.74928V18.9192C57.0424 18.9721 57.0851 19.0136 57.1353 19.0136H59.07C59.2968 19.0136 59.4956 19.0986 59.661 19.2647C59.8246 19.4308 59.9082 19.6329 59.9082 19.8651C59.9082 20.0973 59.8246 20.2993 59.661 20.4655C59.4975 20.6316 59.2986 20.7166 59.07 20.7166H53.1247V20.7147ZM56.1094 6.40378C55.7229 6.40378 55.392 6.26596 55.1244 5.99598C54.8568 5.72411 54.723 5.38805 54.723 4.99535C54.723 4.60265 54.8587 4.28547 55.1263 4.00605C55.3921 3.72662 55.7247 3.58691 56.1094 3.58691C56.4941 3.58691 56.8064 3.72851 57.0814 4.00793C57.3565 4.28735 57.4959 4.61964 57.4959 4.99535C57.4959 5.37105 57.3565 5.72411 57.0814 5.99409C56.8064 6.26596 56.4793 6.40378 56.1076 6.40378H56.1094Z" fill="white"/>
<path d="M66.7962 20.7146C65.315 20.7146 64.0865 20.2653 63.1461 19.3817C62.2075 18.5 61.7318 17.1936 61.7318 15.4982V10.4761C61.7318 10.4233 61.689 10.3817 61.6388 10.3817H60.3249C60.0796 10.3817 59.877 10.3043 59.7209 10.1533C59.5629 10.0004 59.4867 9.81345 59.4867 9.57934C59.4867 9.34523 59.5648 9.15643 59.7209 9.0054C59.877 8.85436 60.0796 8.77695 60.3249 8.77695H61.6388C61.6909 8.77695 61.7318 8.73353 61.7318 8.68255V6.59633C61.7318 6.32824 61.8247 6.10546 62.0143 5.911C62.202 5.72031 62.4287 5.62402 62.6889 5.62402C62.9639 5.62402 63.1981 5.72031 63.3877 5.911C63.5754 6.10168 63.6702 6.33202 63.6702 6.59633V8.68255C63.6702 8.73541 63.7129 8.77695 63.7631 8.77695H66.2461C66.4747 8.77695 66.6754 8.85436 66.8389 9.00728C67.0006 9.15832 67.0824 9.3509 67.0824 9.57934C67.0824 9.80779 67.0025 10.0004 66.8389 10.1514C66.6754 10.3043 66.4747 10.3817 66.2461 10.3817H63.7631C63.7111 10.3817 63.6702 10.4252 63.6702 10.4761V15.0129C63.6702 16.259 63.9136 17.2049 64.395 17.8241C64.8782 18.4472 65.6811 18.8474 66.7832 19.0117C67.0341 19.0419 67.2404 19.1382 67.3983 19.3005C67.5563 19.461 67.6344 19.646 67.6344 19.8632C67.6344 20.0954 67.5544 20.2974 67.3983 20.4654C67.2404 20.6335 67.0434 20.7146 66.798 20.7146H66.7962Z" fill="white"/>
<path d="M36.5269 0.5C35.8597 0.5 35.317 1.05129 35.317 1.72907V9.56986C34.2521 8.7467 32.9511 8.29736 31.6093 8.29736C28.2305 8.29736 25.4818 11.0897 25.4818 14.522C25.4818 17.9544 28.2305 20.7467 31.6093 20.7467C32.9511 20.7467 34.2521 20.2974 35.317 19.4723V19.5157C35.317 20.1935 35.8597 20.7448 36.5269 20.7448C37.1941 20.7448 37.7368 20.1935 37.7368 19.5157V1.72907C37.7368 1.05129 37.1941 0.5 36.5269 0.5ZM35.317 14.5201C35.317 16.5969 33.6536 18.2867 31.6093 18.2867C29.5649 18.2867 27.9016 16.5969 27.9016 14.5201C27.9016 12.4434 29.5649 10.7536 31.6093 10.7536C33.6536 10.7536 35.317 12.4434 35.317 14.5201Z" fill="white"/>
<path d="M9.60094 16.8231C9.27757 16.8231 8.97463 16.9515 8.74603 17.1837C8.04724 17.8936 7.11613 18.2844 6.12555 18.2844C5.13497 18.2844 4.21873 17.8993 3.52179 17.2026L3.50321 17.1837C2.80441 16.4738 2.4197 15.528 2.4197 14.5217C2.4197 13.5154 2.80441 12.5695 3.50321 11.8596C4.202 11.1497 5.13311 10.7589 6.12369 10.7589C7.11427 10.7589 8.04538 11.1497 8.74417 11.8596C8.97277 12.0918 9.27571 12.2202 9.59908 12.2202C9.92246 12.2202 10.2273 12.0918 10.4559 11.8596C10.6844 11.6274 10.8108 11.3178 10.8108 10.9893C10.8108 10.6608 10.6844 10.3511 10.4559 10.1208C9.29987 8.94647 7.76103 8.30078 6.12369 8.30078C4.48635 8.30078 2.94566 8.94647 1.79153 10.1208C-0.592925 12.5431 -0.596642 16.4833 1.78038 18.9112L1.79339 18.9244C1.79339 18.9244 1.79339 18.9244 1.79525 18.9263C2.94937 20.0988 4.48635 20.7426 6.12369 20.7426C7.76103 20.7426 9.30172 20.0969 10.4559 18.9226C10.6844 18.6903 10.8108 18.3807 10.8108 18.0541C10.8108 17.7256 10.6844 17.4178 10.4559 17.1837C10.2273 16.9515 9.92246 16.8231 9.59908 16.8231H9.60094Z" fill="white"/>
<path d="M18.15 8.2959C14.7712 8.2959 12.0225 11.0882 12.0225 14.5206C12.0225 17.9529 14.7712 20.7452 18.15 20.7452C21.5287 20.7452 24.2774 17.9529 24.2774 14.5206C24.2774 11.0882 21.5287 8.2959 18.15 8.2959ZM18.15 18.2871C16.1056 18.2871 14.4423 16.5973 14.4423 14.5206C14.4423 12.4438 16.1056 10.754 18.15 10.754C20.1943 10.754 21.8577 12.4438 21.8577 14.5206C21.8577 16.5973 20.1943 18.2871 18.15 18.2871Z" fill="white"/>
</g>
<defs>
<clipPath id="clip0_205_3444">
<rect width="73" height="21" fill="white" transform="translate(0 0.5)"/>
</clipPath>
</defs>
</svg>
