<svg width="78" height="16" viewBox="0 0 78 16" fill="none" xmlns="http://www.w3.org/2000/svg">
<g clip-path="url(#clip0_205_3436)">
<path d="M32.3606 9.05808H30.5867C30.1559 10.5114 28.8382 11.5625 27.2797 11.5625C25.3665 11.5625 23.8207 9.97941 23.8207 8.01996C23.8207 6.06051 25.3665 4.47738 27.2797 4.47738C28.4961 4.47738 29.5604 5.12621 30.1813 6.09944L31.8791 4.36059C30.8148 2.95913 29.155 2.05078 27.2797 2.05078C24.0614 2.05078 21.4513 4.72394 21.4513 8.01996C21.4513 11.316 24.0614 13.9891 27.2797 13.9891C30.1559 13.9891 32.538 11.861 33.0195 9.05808H32.3606Z" fill="white"/>
<path d="M59.5896 2.05078C58.2212 2.05078 56.9922 2.66068 56.1559 3.63391C55.307 2.66068 54.0779 2.05078 52.7222 2.05078C50.1754 2.05078 48.1101 4.16595 48.1101 6.77422V13.9891H50.4542V6.77422C50.4542 5.50252 51.4678 4.45143 52.7222 4.45143C53.9766 4.45143 54.9902 5.48955 54.9902 6.77422V13.9891H57.3343V6.77422C57.3343 5.50252 58.3479 4.45143 59.6023 4.45143C60.8567 4.45143 61.8703 5.48955 61.8703 6.77422V13.9891H64.2144V6.77422C64.2144 4.16595 62.1491 2.05078 59.6023 2.05078H59.5896Z" fill="white"/>
<path d="M45.9055 8.08485C45.9055 8.08485 45.9055 8.04592 45.9055 8.01996C45.9055 4.72394 43.2954 2.05078 40.0771 2.05078C36.8587 2.05078 34.2486 4.72394 34.2486 8.01996C34.2486 11.316 36.8587 13.9891 40.0771 13.9891C41.3695 13.9891 42.5732 13.5479 43.5488 12.8213V13.9762H45.9182V8.08485H45.9055ZM40.0771 11.5625C38.1638 11.5625 36.618 9.97941 36.618 8.01996C36.618 6.06051 38.1638 4.47738 40.0771 4.47738C41.9903 4.47738 43.5361 6.06051 43.5361 8.01996C43.5361 9.97941 41.9903 11.5625 40.0771 11.5625Z" fill="white"/>
<path d="M72.1715 2.02441C68.9532 2.02441 66.3431 4.69757 66.3431 7.99359C66.3431 8.01955 66.3431 8.03252 66.3431 8.05848V16.0001H68.7125V12.7949C69.6754 13.5346 70.8791 13.9628 72.1715 13.9628C75.3899 13.9628 78 11.2896 78 7.99359C78 4.69757 75.3899 2.02441 72.1715 2.02441ZM72.1715 11.5362C70.2583 11.5362 68.7125 9.95304 68.7125 7.99359C68.7125 6.03415 70.2583 4.45102 72.1715 4.45102C74.0848 4.45102 75.6306 6.03415 75.6306 7.99359C75.6306 9.95304 74.0848 11.5362 72.1715 11.5362Z" fill="white"/>
<path d="M17.8654 8.01989C17.8654 8.74657 17.2826 9.34349 16.573 9.34349C15.8635 9.34349 15.2806 8.74657 15.2806 8.01989C15.2806 7.29321 15.8635 6.69629 16.573 6.69629C17.2826 6.69629 17.8654 7.29321 17.8654 8.01989Z" fill="white"/>
<path fill-rule="evenodd" clip-rule="evenodd" d="M11.3024 10.0568C11.5304 9.42092 11.6571 8.73317 11.6571 8.00649C11.6571 7.98054 11.6571 7.96756 11.6571 7.94161V0H9.28774V3.20519C8.32478 2.46553 7.12107 2.03731 5.82867 2.03731C2.61035 2.03731 0.000213623 4.71046 0.000213623 8.00649C0.000213623 11.3025 2.61035 13.9757 5.82867 13.9757C7.08306 13.9757 8.23608 13.5604 9.19905 12.8727L7.72926 10.9521C7.26045 11.2636 6.71561 11.4712 6.13277 11.5361L7.57721 9.88808L10.086 13.1582H13.9252L11.3024 10.0568ZM8.99632 9.42092H7.01971L5.20782 11.4972C3.58598 11.1987 2.36961 9.74534 2.36961 8.00649C2.36961 6.04704 3.91542 4.46391 5.82867 4.46391C7.74193 4.46391 9.28774 6.04704 9.28774 8.00649C9.28774 8.51257 9.18637 8.9927 8.99632 9.42092Z" fill="white"/>
</g>
<defs>
<clipPath id="clip0_205_3436">
<rect width="78" height="16" fill="white"/>
</clipPath>
</defs>
</svg>
