<svg width="40" height="46" viewBox="0 0 40 46" fill="none" xmlns="http://www.w3.org/2000/svg">
<path d="M39.9755 31.4084C40.2741 27.7417 37.8118 25.2642 34.1098 25.4041C31.1382 25.5166 28.4754 28.1262 28.309 31.093C28.1801 33.3778 32.3096 36.7845 32.1884 39.1051C31.9914 42.8886 25.2921 40.1383 22.8212 39.6013C22.8212 39.6013 20.3069 39.0548 20.963 36.4333C21.4979 34.2951 23.857 31.1297 20.7164 30.1305C17.6355 29.1518 13.7177 31.3419 11.7801 33.6173C10.7349 34.8441 9.02939 35.6285 6.6925 32.8023C4.52368 30.1791 3.19099 26.3418 4.80268 23.1065C6.21215 20.2769 9.23672 18.8916 11.8535 17.4158C14.9207 15.6861 17.9214 13.8565 21.0611 12.2538C23.3212 11.1003 26.0147 9.50436 28.6059 9.39098C32.313 9.229 31.3694 14.4473 35.8128 14.0202C39.0319 13.7099 40.7656 9.93063 39.0106 7.22214C36.7675 3.76172 30.1587 10.2341 29.6766 6.72426C29.2808 3.841 29.0606 -0.627961 25.6837 0.0736713C23.5499 0.516987 21.9203 1.84097 20.719 3.6023C19.9025 4.8001 19.6363 6.66544 18.1423 7.24857C16.4385 7.91439 14.7586 6.37643 13.2126 5.92288C8.42448 4.51706 4.44263 9.95621 2.70809 13.6059C2.70809 13.6059 -9.09754 40.9124 16.5895 45.609C23.1369 46.806 30.9129 45.3013 35.8102 40.4487C37.8391 38.4384 39.7102 34.6711 39.9764 31.4084H39.9755Z" fill="white"/>
</svg>
