<svg width="149" height="34" viewBox="0 0 149 34" fill="none" xmlns="http://www.w3.org/2000/svg">
<g clip-path="url(#clip0_205_3379)">
<path d="M28.6423 20.935V15.2111C28.6423 12.7406 26.6864 10.7354 24.2685 10.7354C21.8507 10.7354 19.8948 12.7369 19.8948 15.2111V20.935L24.2685 24.0665L28.6423 20.935Z" fill="white"/>
<path d="M5.503 11.7135C3.92239 10.5798 1.73912 10.9749 0.631243 12.5924C-0.476631 14.2099 -0.0904987 16.444 1.49012 17.5777C3.07073 18.7114 5.254 18.3163 6.36187 16.6988C7.46975 15.0814 7.08362 12.8472 5.503 11.7135Z" fill="white"/>
<path d="M24.287 7.15633C26.2182 7.14805 27.7772 5.53926 27.7691 3.563C27.761 1.58674 26.1889 -0.00861872 24.2577 -0.000340541C22.3264 0.00793764 20.7674 1.61672 20.7755 3.59298C20.7836 5.56924 22.3557 7.1646 24.287 7.15633Z" fill="white"/>
<path d="M47.9087 12.5924C46.8009 10.9749 44.6212 10.5798 43.037 11.7135C41.4564 12.8472 41.0702 15.0777 42.1781 16.6988C43.286 18.32 45.4657 18.7114 47.0499 17.5777C48.6305 16.444 49.0166 14.2135 47.9087 12.5924Z" fill="white"/>
<path d="M39.3131 18.7495C37.9274 16.7258 35.2028 16.2347 33.2252 17.649L28.6458 20.932V29.5252C28.6458 29.5252 28.6458 29.5511 28.6458 29.5621C28.6566 28.1404 28.007 26.7371 26.7837 25.8582L24.2756 24.0598L21.7676 25.8582C20.5442 26.7371 19.8946 28.1404 19.9055 29.5621C19.9055 29.5511 19.9055 29.5363 19.9055 29.5252V20.932L15.326 17.649C13.3484 16.231 10.6203 16.7221 9.23812 18.7495C7.85237 20.7732 8.33233 23.565 10.3135 24.9793L21.7748 33.1922C21.7748 33.1922 21.7928 33.2033 21.8 33.2107C21.7748 33.1922 21.7531 33.1737 21.7279 33.1553C21.7676 33.1848 21.8109 33.2144 21.8506 33.2439C21.9191 33.2919 21.9877 33.3362 22.0563 33.3768C22.0599 33.3768 22.0671 33.3842 22.0707 33.3842C22.1248 33.4175 22.179 33.447 22.2331 33.4766C22.298 33.5135 22.3666 33.5467 22.4316 33.5763C22.5001 33.6095 22.5687 33.639 22.6373 33.6686C22.695 33.6907 22.7527 33.7129 22.8105 33.7351C22.8899 33.7646 22.9656 33.7904 23.0486 33.8163C23.092 33.8274 23.1317 33.8385 23.175 33.8495C23.1894 33.8532 23.2038 33.8569 23.2183 33.8606C23.2976 33.8828 23.3807 33.9012 23.46 33.916C23.4925 33.9234 23.5214 33.9271 23.5539 33.9308C23.5863 33.9382 23.6188 33.9419 23.6513 33.9455C23.7235 33.9566 23.7957 33.9677 23.8678 33.9751C23.9039 33.9751 23.9364 33.9788 23.9725 33.9825C24.023 33.9825 24.0699 33.9899 24.1204 33.9899C24.1746 33.9899 24.2251 33.9936 24.2792 33.9936C24.3297 33.9936 24.3839 33.9936 24.4344 33.9899C24.4849 33.9899 24.5318 33.9862 24.5824 33.9825C24.6184 33.9825 24.6509 33.9788 24.687 33.9751C24.7592 33.9677 24.8314 33.9566 24.9035 33.9455C24.936 33.9419 24.9685 33.9345 25.001 33.9308C25.0334 33.9271 25.0623 33.9197 25.0948 33.916C25.1778 33.9012 25.2572 33.8791 25.3366 33.8606C25.351 33.8569 25.3654 33.8532 25.3799 33.8495C25.4232 33.8385 25.4629 33.8274 25.5062 33.8163C25.5856 33.7941 25.665 33.7646 25.7444 33.7351C25.8021 33.7129 25.8598 33.6907 25.9176 33.6686C25.9861 33.639 26.0547 33.6095 26.1233 33.5763C26.1918 33.543 26.2568 33.5098 26.3218 33.4766C26.3759 33.447 26.43 33.4138 26.4841 33.3842C26.4878 33.3842 26.495 33.3768 26.4986 33.3768C26.5671 33.3325 26.6393 33.2919 26.7079 33.2439C26.7512 33.2144 26.7909 33.1848 26.8306 33.1553C26.8053 33.1737 26.7837 33.1922 26.7584 33.2107C26.7656 33.2033 26.7764 33.1996 26.7837 33.1922L38.2449 24.9793C40.2225 23.5613 40.7025 20.7732 39.3203 18.7495H39.3131ZM20.6886 32.0954C20.6886 32.0954 20.6813 32.0807 20.6741 32.0733C20.6994 32.1102 20.7283 32.1471 20.7571 32.1841C20.7355 32.1545 20.7102 32.125 20.6886 32.0954ZM27.8518 32.0954C27.8302 32.125 27.8049 32.1545 27.7833 32.1841C27.8085 32.1471 27.8374 32.1102 27.8663 32.0733C27.8627 32.0807 27.8591 32.088 27.8518 32.0954Z" fill="white"/>
<path d="M59.7167 24.2403H61.9577V23.1436H62.9068V24.2403H65.1478V25.0195H59.7203V24.2403H59.7167ZM62.4232 25.4996C63.7368 25.4996 64.6426 26.2049 64.6426 27.2685C64.6426 28.332 63.7368 29.0263 62.4232 29.0263C61.1096 29.0263 60.2147 28.332 60.2147 27.2685C60.2147 26.2049 61.1205 25.4996 62.4232 25.4996ZM61.0916 29.6356H62.0299V31.5448H67.2481V32.3461H61.0916V29.6393V29.6356ZM62.4232 28.2803C63.2027 28.2803 63.726 27.8852 63.726 27.2685C63.726 26.6518 63.2063 26.2566 62.4232 26.2566C61.6401 26.2566 61.1205 26.6407 61.1205 27.2685C61.1205 27.8962 61.6509 28.2803 62.4232 28.2803ZM66.8511 23.1436V26.1828H68.1755V26.9915H66.8511V30.1895H65.8912V23.1436H66.8511Z" fill="white"/>
<path d="M75.8119 23.5791V24.2844C75.8119 24.9972 75.8119 25.8207 75.5918 26.9064H76.862V27.704H73.1631V29.3252H75.8516V32.5453H74.9133V30.1154H69.4028V29.3252H72.2248V27.704H68.5367V26.9064H74.6427C74.8736 25.8502 74.8809 25.0636 74.8809 24.3694H69.5977V23.5791H75.8083H75.8119Z" fill="white"/>
<path d="M77.7096 24.2719H81.1054V25.0622H78.6479V29.453C79.7738 29.4419 80.6254 29.3902 81.5854 29.1982L81.69 29.9995C80.5749 30.2248 79.6366 30.2654 78.3159 30.2654H77.7132V24.2756L77.7096 24.2719ZM85.2013 23.1309V32.5328H84.2955V27.6731H83.1082V32.0528H82.2241V23.334H83.1082V26.8606H84.2955V23.1309H85.2013Z" fill="white"/>
<path d="M88.4928 24.0929V23.0811H89.4419V24.0929H91.6829V24.8721H86.2554V24.0929H88.4964H88.4928ZM88.9619 25.3078C90.2863 25.3078 91.1813 25.991 91.1813 27.025C91.1813 28.059 90.2863 28.72 88.9619 28.72C87.6375 28.72 86.7534 28.059 86.7534 27.025C86.7534 25.991 87.6483 25.3078 88.9619 25.3078ZM87.3885 29.4955H93.3898V32.5458H92.4299V30.2858H87.3885V29.4955ZM88.9619 27.9815C89.7414 27.9815 90.2646 27.5974 90.2646 27.0213C90.2646 26.4452 89.745 26.0612 88.9619 26.0612C88.1788 26.0612 87.6592 26.4231 87.6592 27.0213C87.6592 27.6196 88.1788 27.9815 88.9619 27.9815ZM92.4299 23.1401H93.3898V25.6882H94.7142V26.4969H93.3898V29.0118H92.4299V23.1364V23.1401Z" fill="white"/>
<path d="M97.8465 23.7086V24.9346C97.8465 25.9686 98.4925 27.0247 99.6689 27.4937L99.1673 28.2286C98.3229 27.8889 97.731 27.2463 97.3954 26.4708C97.0634 27.346 96.4355 28.1141 95.5406 28.5056L95.0389 27.7485C96.2587 27.2057 96.9263 26.0018 96.9263 24.9346V23.7086H97.8429H97.8465ZM99.7844 29.1223C101.69 29.1223 102.877 29.75 102.877 30.8173C102.877 31.8845 101.69 32.5234 99.7844 32.5234C97.879 32.5234 96.7026 31.8956 96.7026 30.8173C96.7026 29.739 97.8898 29.1223 99.7844 29.1223ZM99.7844 31.7885C101.127 31.7885 101.921 31.4266 101.921 30.8173C101.921 30.208 101.13 29.8682 99.7844 29.8682C98.4384 29.8682 97.6372 30.219 97.6372 30.8173C97.6372 31.4155 98.4492 31.7885 99.7844 31.7885ZM99.9612 23.3245H100.856V25.6067H101.917V23.1436H102.834V28.9302H101.917V26.4043H100.856V28.6311H99.9612V23.3208V23.3245Z" fill="white"/>
<path d="M106.875 23.877V31.872H105.457V23.877H106.875Z" fill="white"/>
<path d="M113.541 25.0291H111.426V31.872H110.008V25.0291H107.85V23.877H113.537V25.0291H113.541Z" fill="white"/>
<path d="M120.563 26.4811V25.6724H118.698C118.124 27.1865 116.832 28.2094 114.75 28.7855L114.187 27.6111C116.323 27.0572 117.261 26.0749 117.438 24.8489H114.71V23.6561H119.033C119.033 23.9441 119.012 24.2211 118.983 24.487H120.567V23.0283H122.036V28.5196H120.567V27.6665H118.597V26.4848H120.567L120.563 26.4811ZM118.907 28.6451C120.812 28.6451 122.093 29.4022 122.093 30.6171C122.093 31.8321 120.812 32.6112 118.907 32.6112C117.002 32.6112 115.71 31.8321 115.71 30.6171C115.71 29.4022 116.991 28.6451 118.907 28.6451ZM118.907 31.4591C120.011 31.4591 120.657 31.1821 120.657 30.6171C120.657 30.0521 120.011 29.7862 118.907 29.7862C117.803 29.7862 117.157 30.0632 117.157 30.6171C117.157 31.171 117.803 31.4591 118.907 31.4591Z" fill="white"/>
<path d="M127.42 24.2615H129.408V23.0244H130.877V28.6523H129.408V27.5666H127.387C126.94 28.0024 126.294 28.2719 125.576 28.2719C124.168 28.2719 123.086 27.2712 123.086 25.9048C123.086 24.5385 124.168 23.5266 125.576 23.5266C126.315 23.5266 126.961 23.8036 127.42 24.2615ZM127.669 28.8333C129.657 28.8333 130.909 29.546 130.909 30.7535C130.909 31.9611 129.661 32.6627 127.669 32.6627C125.677 32.6627 124.428 31.9574 124.428 30.7535C124.428 29.5497 125.677 28.8333 127.669 28.8333ZM125.576 27.009C126.232 27.009 126.691 26.6139 126.691 25.9011C126.691 25.1884 126.232 24.7822 125.576 24.7822C124.919 24.7822 124.471 25.1773 124.471 25.9011C124.471 26.6249 124.941 27.009 125.576 27.009ZM127.669 31.518C128.867 31.518 129.47 31.2742 129.47 30.7498C129.47 30.2255 128.867 29.9817 127.669 29.9817C126.471 29.9817 125.868 30.2181 125.868 30.7498C125.868 31.2816 126.471 31.518 127.669 31.518ZM129.408 26.3701V25.4432H128.033C128.066 25.5909 128.077 25.7423 128.077 25.9011C128.077 26.0599 128.066 26.2224 128.033 26.3701H129.408Z" fill="white"/>
<path d="M134.179 24.0929V23.0811H135.128V24.0929H137.369V24.8721H131.941V24.0929H134.182H134.179ZM134.648 25.3078C135.972 25.3078 136.867 25.991 136.867 27.025C136.867 28.059 135.972 28.72 134.648 28.72C133.323 28.72 132.439 28.059 132.439 27.025C132.439 25.991 133.334 25.3078 134.648 25.3078ZM133.074 29.4955H139.076V32.5458H138.116V30.2858H133.074V29.4955ZM134.648 27.9815C135.427 27.9815 135.95 27.5974 135.95 27.0213C135.95 26.4452 135.431 26.0612 134.648 26.0612C133.865 26.0612 133.345 26.4231 133.345 27.0213C133.345 27.6196 133.865 27.9815 134.648 27.9815ZM138.116 23.1401H139.076V25.6882H140.4V26.4969H139.076V29.0118H138.116V23.1364V23.1401Z" fill="white"/>
<path d="M143.306 29.9642V28.993C142.245 28.8527 141.555 28.2138 141.555 27.2869C141.555 26.2308 142.45 25.5402 143.775 25.5402C145.099 25.5402 146.005 26.2345 146.005 27.2869C146.005 28.2027 145.316 28.8416 144.266 28.993V29.9199C145.121 29.8756 145.972 29.8128 146.777 29.7057L146.839 30.4185C144.807 30.7804 142.609 30.7914 140.931 30.7914L140.805 29.9827C141.555 29.9827 142.411 29.9827 143.306 29.9605V29.9642ZM140.992 24.2625H143.306V23.1546H144.266V24.2625H146.568V25.0417H140.996V24.2625H140.992ZM143.775 28.2803C144.565 28.2803 145.11 27.8962 145.11 27.2906C145.11 26.685 144.569 26.2899 143.775 26.2899C142.981 26.2899 142.45 26.6739 142.45 27.2906C142.45 27.9073 143.003 28.2803 143.775 28.2803ZM148.286 23.1436V32.5455H147.326V23.1436H148.286Z" fill="white"/>
<path d="M66.1907 9.87142L72.0368 3.42741L72.127 3.3277V2.76639H68.4389L68.3378 2.88087L63.7403 8.11362V2.7627H60.4889V17.4233H63.7403V11.7622L68.8683 17.3162L68.9694 17.4233H72.6322V16.777L72.5384 16.6773L66.187 9.87142H66.1907Z" fill="white"/>
<path d="M82.8812 2.78418H82.542V11.13C82.542 13.3568 81.4485 14.6345 79.5467 14.6345C77.5186 14.6345 76.3566 13.3568 76.3566 11.13V2.78418H73.1268V11.13C73.1268 15.133 75.6385 17.7217 79.5287 17.7217C83.4189 17.7217 85.7754 15.1958 85.7754 11.13V2.78418H82.8812ZM78.4316 14.8413C78.7745 14.9336 79.1498 14.9816 79.5467 14.9816C80.7412 14.9816 81.647 14.52 82.21 13.6928C81.647 14.5237 80.7412 14.9816 79.5467 14.9816C79.1498 14.9816 78.7745 14.9336 78.4316 14.8413C78.0888 14.749 77.7748 14.6087 77.497 14.424C77.7748 14.6087 78.0888 14.7453 78.4316 14.8413ZM73.4661 11.13C73.4661 11.6544 73.5094 12.1492 73.5924 12.6071C73.5094 12.1492 73.4661 11.6581 73.4661 11.13ZM85.4361 11.13C85.4361 15.2623 82.9606 17.3746 79.5287 17.3746C78.3017 17.3746 77.1397 17.0866 76.169 16.5068C77.1397 17.0866 78.2981 17.3709 79.5287 17.3709C82.9606 17.3709 85.4361 15.2549 85.4361 11.1263V11.13Z" fill="white"/>
<path d="M93.8806 8.19544C91.9066 7.95541 91.1344 7.56027 91.1344 6.78478C91.1344 5.83941 92.0654 5.27441 93.6244 5.27441C95.0101 5.27441 96.1757 5.99082 96.5691 6.66291L96.7315 6.93988L97.0129 6.79216L99.0591 5.71385L99.355 5.55875L99.207 5.25225C98.276 3.30981 96.3165 2.2832 93.5414 2.2832C90.7446 2.30536 87.9226 3.6791 87.9226 6.69984C87.9226 10.1231 90.7843 10.9318 93.5847 11.2753C94.8152 11.4119 96.4464 11.7332 96.4464 12.9851C96.4464 14.6062 94.3028 14.7318 93.646 14.7318C91.9283 14.7318 90.6111 13.9858 90.1203 12.7339L89.9796 12.3794L89.6476 12.553L87.504 13.6904L87.2297 13.8344L87.3452 14.1261C88.3196 16.5819 90.3693 17.7747 93.6063 17.7747C97.3522 17.7747 99.6762 15.9356 99.6762 12.9777C99.6762 9.40669 96.8902 8.56473 93.8806 8.18436V8.19544ZM89.2687 4.15917C89.063 4.36966 88.8825 4.60231 88.731 4.86081C88.8789 4.60231 89.063 4.36966 89.2687 4.15917ZM88.3845 5.70647C88.3051 6.01297 88.2618 6.34533 88.2618 6.70723C88.2618 6.34902 88.3051 6.01667 88.3845 5.70647ZM94.2775 11.0279C94.4868 11.0648 94.6889 11.1054 94.8802 11.1571C94.6889 11.1091 94.4868 11.0648 94.2775 11.0279ZM91.1921 17.158C90.8998 17.0804 90.6183 16.9844 90.3549 16.8699C89.4238 16.4674 88.6516 15.8285 88.0886 14.8906C87.9262 14.621 87.7819 14.3293 87.6556 14.0117L89.7991 12.8743C90.4018 14.4105 91.9824 15.09 93.6388 15.09C95.2952 15.09 96.7784 14.5102 96.7784 12.9961C96.7784 14.5139 95.2555 15.09 93.6388 15.09C92.0221 15.09 90.4018 14.4105 89.7991 12.8743L87.6556 14.0117C87.7819 14.3293 87.9262 14.6247 88.0886 14.8906C88.6516 15.8285 89.4202 16.4674 90.3549 16.8699C90.6219 16.9844 90.8998 17.0804 91.1921 17.158ZM95.7824 17.1838C96.1216 17.0952 96.4464 16.9881 96.7531 16.8552C96.4464 16.9881 96.1216 17.0989 95.7824 17.1838ZM99.337 12.9924C99.337 11.9511 99.0771 11.1608 98.6369 10.5552C99.0807 11.1608 99.337 11.9511 99.337 12.9924Z" fill="white"/>
<path d="M101.83 2.7627H101.491V3.10982V17.0762V17.4233H101.83H104.385H104.724V17.0762V3.10982V2.7627H104.385H101.83Z" fill="white"/>
<path d="M107.113 2.7627H106.774V3.10982V5.50278V5.84991H107.113H111.105V17.0762V17.4233H111.444H114.017H114.356V17.0762V5.84991H118.344H118.683V5.50278V3.10982V2.7627H118.344H107.113Z" fill="white"/>
<path d="M131.916 2.78418H131.743L131.642 2.9282L127.647 8.54871L123.652 2.9282L123.551 2.78418H120.076V17.4448H123.327V8.00217L127.062 13.2312L127.163 13.3716H128.011L128.112 13.2312L131.948 7.99847V17.4411H135.2V2.78418H131.916Z" fill="white"/>
<path d="M143.204 8.19544C141.23 7.95541 140.458 7.56027 140.458 6.78478C140.458 5.83941 141.389 5.27441 142.948 5.27441C144.334 5.27441 145.499 5.99082 145.893 6.66291L146.055 6.93988L146.336 6.79216L148.383 5.71385L148.678 5.55875L148.531 5.25225C147.599 3.30981 145.64 2.2832 142.865 2.2832C140.068 2.30536 137.246 3.6791 137.246 6.69984C137.246 10.1231 140.108 10.9318 142.908 11.2753C144.139 11.4119 145.77 11.7332 145.77 12.9851C145.77 14.6062 143.626 14.7318 142.97 14.7318C141.252 14.7318 139.935 13.9858 139.444 12.7339L139.303 12.3794L138.971 12.553L136.827 13.6904L136.553 13.8344L136.669 14.1261C137.643 16.5819 139.693 17.7747 142.93 17.7747C146.676 17.7747 149 15.9356 149 12.9777C149 9.40669 146.214 8.56473 143.204 8.18436V8.19544ZM148.66 12.9888C148.66 11.9474 148.401 11.1571 147.96 10.5515C148.404 11.1571 148.66 11.9474 148.66 12.9888ZM148.231 5.40735C147.906 4.73525 147.47 4.21087 146.957 3.80835C147.47 4.21087 147.906 4.73156 148.231 5.40735ZM138.592 4.15917C138.386 4.36966 138.206 4.60231 138.054 4.86081C138.202 4.60231 138.386 4.36966 138.592 4.15917ZM137.708 5.70647C137.629 6.01297 137.585 6.34533 137.585 6.70723C137.585 6.34902 137.629 6.01667 137.708 5.70647ZM143.601 11.0279C143.81 11.0648 144.012 11.1054 144.204 11.1571C144.012 11.1091 143.81 11.0648 143.601 11.0279ZM140.516 17.158C140.223 17.0804 139.942 16.9844 139.678 16.8699C138.747 16.4674 137.979 15.8285 137.412 14.8906C137.25 14.621 137.105 14.3293 136.979 14.0117L139.123 12.8743C139.725 14.4105 141.306 15.09 142.962 15.09C144.619 15.09 146.102 14.5102 146.102 12.9961C146.102 14.5139 144.579 15.09 142.962 15.09C141.346 15.09 139.725 14.4105 139.123 12.8743L136.979 14.0117C137.105 14.3293 137.25 14.6247 137.412 14.8906C137.975 15.8285 138.744 16.4674 139.678 16.8699C139.945 16.9844 140.223 17.0804 140.516 17.158ZM145.106 17.1838C145.445 17.0952 145.77 16.9881 146.077 16.8552C145.77 16.9881 145.445 17.0989 145.106 17.1838Z" fill="white"/>
</g>
<defs>
<clipPath id="clip0_205_3379">
<rect width="149" height="34" fill="white"/>
</clipPath>
</defs>
</svg>
