<svg width="91" height="26" viewBox="0 0 91 26" fill="none" xmlns="http://www.w3.org/2000/svg">
<g clip-path="url(#clip0_205_3404)">
<path d="M14.0028 12.8545C14.0028 12.8545 13.9164 13.019 13.7067 13.1963C13.4846 13.4115 13.2749 13.5001 12.8184 13.6646C12.3126 13.8545 12.1275 14.0823 11.9795 14.3988C11.8931 14.576 11.8684 14.7912 11.8931 14.9051L11.9548 15.019C11.9548 15.019 12.1522 14.4621 12.6704 14.4241C12.9048 14.4241 13.2009 14.5001 13.3119 14.8671L13.3366 15.0317C13.3983 15.8039 12.6704 16.5127 11.7821 16.4874C11.1282 16.4621 10.4003 16.0317 10.2893 15.2216C10.1906 14.5507 10.462 13.8545 10.9185 13.6013C10.9801 13.614 11.0665 13.6393 11.1529 13.6646C11.3256 13.7026 11.486 13.7026 11.6464 13.6646C11.8067 13.6393 11.9795 13.538 11.9671 13.3988C11.9301 13.1836 11.597 13.1456 11.4119 13.1456C11.2145 13.1456 11.0665 13.1836 11.0048 13.2089C10.8568 13.095 10.7827 12.9684 10.7211 12.7406C10.5977 12.3102 10.8321 11.5887 11.523 11.5127C11.9548 11.4747 12.2262 11.652 12.4113 11.8798C12.5963 12.1203 12.6457 12.1963 12.695 12.1836L12.7444 12.0697V11.4874C12.6704 11.2342 12.0535 10.9558 11.4243 10.9937C11.2145 10.9937 11.0912 11.0064 10.7704 11.1203C10.0302 11.3861 9.79576 12.057 9.86978 12.5633C9.93147 13.0823 10.3633 13.3355 10.3633 13.3355C9.6107 13.6266 9.01851 14.4621 9.27759 15.538C9.53667 16.614 10.7334 17.0064 11.523 17.019C12.4113 17.0444 13.0405 16.6899 13.4229 16.2596C13.7437 15.9051 13.9411 15.3861 13.8671 14.8798C13.8424 14.7152 13.7067 14.3228 13.4229 14.1456C13.4229 14.1456 13.5833 14.0823 13.6943 14.0064C13.9411 13.8165 14.0521 13.576 14.1015 13.3355C14.1262 13.133 14.1015 12.9304 14.0645 12.8671L14.0275 12.8418" fill="white"/>
<path d="M16.4949 16.4872H18.691C19.3942 16.4872 20.1221 16.1075 20.1714 15.1454C20.2331 14.1454 19.6409 13.7657 18.913 13.7657H17.9261C17.6546 13.7657 17.5189 13.7657 17.3462 14.0695L17.0254 14.6897H18.3208C18.6293 14.6897 18.765 14.8923 18.765 15.1454C18.765 15.3733 18.6293 15.5632 18.3332 15.5632H17.1488C16.8157 15.5632 16.5319 15.4492 16.3345 15.1961C16.1865 14.9935 16.0384 14.7404 16.0384 14.272C16.0384 13.7783 16.1865 13.5632 16.3345 13.3733C16.5073 13.1454 16.7787 13.0695 17.0378 13.0442H17.1611H19.2832C19.5422 13.0442 19.6903 13.0442 19.8507 12.7404L20.1838 12.1201H16.5443C15.4092 12.1201 14.5826 13.0568 14.5826 14.31C14.5826 15.4239 15.2489 16.31 16.2112 16.4619C16.2112 16.4619 16.2852 16.4745 16.4949 16.4745" fill="white"/>
<path d="M5.95892 13.4366C5.95892 13.0316 5.63815 13.0569 5.63815 13.0569H3.94794L2.94862 14.0316L4.88557 16.4999H3.56548C3.07199 16.4999 2.88693 16.2594 2.61551 15.8923L1.70255 14.6392L1.54216 14.5885L1.46814 14.6898V16.5126H0V12.1455H1.46814V13.9936L2.97329 12.462C3.12134 12.3227 3.23237 12.2468 3.38042 12.1961C3.47912 12.1708 3.60249 12.1455 3.75054 12.1455H9.43804L9.11727 12.7784C8.95689 13.0569 8.82118 13.0822 8.57443 13.0822H7.37771V16.5126H5.94658V13.462L5.95892 13.4366Z" fill="white"/>
<path d="M25.5876 11.8422V12.4878C25.5876 12.9435 25.5876 13.3106 25.6122 13.6017C25.6246 13.8929 25.6863 14.1967 25.7973 14.5131C25.9824 15.0954 26.3278 15.6271 26.8336 16.1081C27.3395 16.5764 27.981 16.9815 28.7583 17.3359L27.4382 19.3486C26.7719 19.0321 26.1921 18.6777 25.7109 18.2853C25.2174 17.8802 24.798 17.3612 24.4402 16.703C24.1194 17.3359 23.7246 17.8802 23.2435 18.3233C22.7623 18.7663 22.2195 19.1587 21.6273 19.5005L20.2085 17.6017C21.0104 17.2093 21.6273 16.7663 22.0714 16.2853C22.5156 15.8043 22.861 15.2346 23.0831 14.5764C23.1941 14.26 23.2558 13.9435 23.2682 13.6144C23.2928 13.2853 23.2928 12.9182 23.2928 12.4878V11.8422H25.5876ZM28.2154 22.0574C28.2154 21.6017 28.3018 21.1587 28.4868 20.7283C28.6596 20.3106 28.9186 19.9435 29.2271 19.6271C29.5478 19.3106 29.8933 19.0701 30.3128 18.8802C30.7322 18.703 31.164 18.6144 31.6452 18.6144C32.1263 18.6144 32.5581 18.703 32.9653 18.8802C33.3847 19.0701 33.7425 19.3106 34.0633 19.6271C34.3717 19.9435 34.6185 20.2979 34.7912 20.7283C34.9639 21.1587 35.0626 21.6017 35.0626 22.0574C35.0626 22.5384 34.9763 22.9815 34.7912 23.3992C34.6061 23.8169 34.3717 24.184 34.0633 24.5005C33.7425 24.8169 33.3847 25.0574 32.9653 25.2473C32.5458 25.4372 32.114 25.5258 31.6452 25.5258C31.1764 25.5258 30.7322 25.4372 30.3128 25.2473C29.8933 25.0574 29.5478 24.8169 29.2271 24.5005C28.9186 24.184 28.6719 23.8169 28.4868 23.3992C28.3018 22.9815 28.2154 22.5384 28.2154 22.0574ZM29.8069 8.99414C30.7446 9.18401 31.3861 9.5511 31.7315 10.1207C32.1017 10.6777 32.2744 11.4372 32.2744 12.3865V14.9308H34.7418V17.0701H30.0043V12.3865C30.0043 12.0321 29.9303 11.7536 29.7699 11.5638C29.6095 11.3612 29.3381 11.2093 28.9556 11.0827L29.8069 9.0068V8.99414ZM30.3498 22.0574C30.3498 22.4245 30.4731 22.741 30.7075 22.9815C30.942 23.2346 31.2627 23.3612 31.6328 23.3612C32.003 23.3612 32.3237 23.2346 32.5705 22.9815C32.8049 22.7283 32.9283 22.4245 32.9283 22.0574C32.9283 21.6903 32.8049 21.3865 32.5705 21.1334C32.3361 20.8802 32.0153 20.7536 31.6328 20.7536C31.2504 20.7536 30.942 20.8802 30.7075 21.1334C30.4731 21.3865 30.3498 21.6903 30.3498 22.0574Z" fill="white"/>
<path d="M40.898 11.8422V12.4878C40.898 12.9435 40.898 13.3106 40.9226 13.6017C40.9226 13.8929 40.9967 14.1967 41.1077 14.5131C41.2928 15.0954 41.6382 15.6271 42.144 16.1081C42.6499 16.5764 43.2914 16.9815 44.0687 17.3359L42.7609 19.3486C42.107 19.0321 41.5272 18.6777 41.0337 18.2853C40.5402 17.8802 40.1207 17.3612 39.7629 16.703C39.4545 17.3359 39.0474 17.8802 38.5662 18.3233C38.0851 18.7663 37.5422 19.1587 36.95 19.5005L35.5436 17.6017C36.3332 17.2093 36.95 16.7663 37.3942 16.2853C37.8383 15.8043 38.1714 15.2346 38.3935 14.5764C38.5045 14.26 38.5662 13.9435 38.5909 13.6144C38.6156 13.2853 38.6156 12.9182 38.6156 12.4878V11.8422H40.9226H40.898ZM43.5258 22.0574C43.5258 21.6017 43.6245 21.1587 43.7972 20.7283C43.97 20.3106 44.2167 19.9435 44.5375 19.6271C44.8459 19.3106 45.2037 19.0701 45.6232 18.8802C46.0303 18.703 46.4868 18.6144 46.9556 18.6144C47.4244 18.6144 47.8562 18.703 48.2757 18.8802C48.6952 19.0701 49.0653 19.3106 49.3737 19.6271C49.6821 19.9435 49.9289 20.2979 50.1016 20.7283C50.2867 21.1587 50.373 21.6017 50.373 22.0574C50.373 22.5384 50.2743 22.9815 50.1016 23.3992C49.9289 23.8169 49.6821 24.184 49.3737 24.5005C49.0653 24.8169 48.6952 25.0574 48.2757 25.2473C47.8562 25.4372 47.4244 25.5258 46.9556 25.5258C46.4868 25.5258 46.0303 25.4372 45.6232 25.2473C45.216 25.0574 44.8582 24.8169 44.5375 24.5005C44.2167 24.184 43.9823 23.8169 43.7972 23.3992C43.6245 22.9815 43.5258 22.5384 43.5258 22.0574ZM45.1173 8.99414C46.0426 9.18401 46.6965 9.5511 47.042 10.1207C47.3997 10.6777 47.5848 11.4372 47.5848 12.3865V14.9308H50.0523V17.0701H45.3147V12.3865C45.3147 12.0321 45.2407 11.7536 45.0803 11.5638C44.9199 11.3612 44.6485 11.2093 44.2661 11.0827L45.1173 9.0068V8.99414ZM45.6602 22.0574C45.6602 22.4245 45.7835 22.741 46.018 22.9815C46.2524 23.2346 46.5608 23.3612 46.9433 23.3612C47.3257 23.3612 47.6465 23.2346 47.8809 22.9815C48.1276 22.7283 48.2387 22.4245 48.2387 22.0574C48.2387 21.6903 48.1276 21.3865 47.8809 21.1334C47.6465 20.8802 47.338 20.7536 46.9433 20.7536C46.5485 20.7536 46.2524 20.8802 46.018 21.1334C45.7835 21.3865 45.6602 21.6903 45.6602 22.0574Z" fill="white"/>
<path d="M75.2453 19.3613H74.505L71.6428 12.2094L73.2713 11.6904L74.8258 15.855C74.8505 15.9183 74.8875 16.0069 74.9245 16.1335C74.9615 16.2474 74.9985 16.374 75.0355 16.5006C75.0725 16.6271 75.1219 16.7537 75.1589 16.8676C75.1959 16.9816 75.2206 17.0702 75.2329 17.1335C75.2329 17.0702 75.2699 16.9816 75.3069 16.8676C75.344 16.7537 75.381 16.6271 75.4303 16.5006C75.4673 16.374 75.5043 16.2474 75.5414 16.1335C75.5784 16.0069 75.603 15.9183 75.6401 15.855L77.1946 11.6904L78.8107 12.2094L75.9608 19.3613H75.2453Z" fill="white"/>
<path d="M58.5774 11.7787V19.3483H56.8132V18.7914C56.5788 18.9939 56.3073 19.1584 55.9866 19.2597C55.6905 19.361 55.3574 19.4116 55.0119 19.4116C54.247 19.4116 53.6178 19.1711 53.112 18.6901C52.8036 18.3736 52.6062 18.0319 52.5198 17.6648C52.4088 17.2977 52.3594 16.8926 52.3594 16.4496V14.5888C52.3594 14.361 52.3471 14.1838 52.3101 14.0319C52.273 13.88 52.2237 13.766 52.162 13.6521C52.088 13.5509 51.9893 13.4496 51.8906 13.3736C51.7672 13.2977 51.6438 13.2091 51.4835 13.1078L52.3964 11.5762C52.9763 11.842 53.4081 12.1711 53.6918 12.5888C53.9756 13.0066 54.1113 13.5255 54.1113 14.1711V16.2471C54.1113 16.804 54.2347 17.1964 54.4691 17.4496C54.7035 17.7028 55.0243 17.8293 55.4067 17.8293C55.7892 17.8293 56.1223 17.6901 56.406 17.4369C56.6775 17.1838 56.8132 16.7787 56.8132 16.2344V11.7407H58.5774V11.7787Z" fill="white"/>
<path d="M68.5706 9.43713C68.5706 9.12067 68.6693 8.85485 68.879 8.627C69.0764 8.41181 69.3355 8.31055 69.6439 8.31055C69.9523 8.31055 70.2238 8.42447 70.4335 8.627C70.6432 8.84219 70.7543 9.10802 70.7543 9.43713C70.7543 9.76624 70.6432 10.0194 70.4335 10.2346C70.2238 10.4498 69.9647 10.5511 69.6439 10.5511C69.3231 10.5511 69.0764 10.4498 68.879 10.2346C68.6693 10.0194 68.5706 9.75358 68.5706 9.43713ZM70.5445 19.3612H68.7433V11.7916H70.5445V19.3612Z" fill="white"/>
<path d="M62.0566 12.7026C62.1182 12.6266 62.2046 12.538 62.328 12.4241C62.4513 12.3102 62.5254 12.2469 62.55 12.2216C63.0065 11.8671 63.5494 11.6773 64.1909 11.6773C64.5734 11.6773 64.9188 11.7405 65.2272 11.8545C65.5357 11.9811 65.8194 12.1583 66.0662 12.4114C66.3869 12.7279 66.5967 13.057 66.7077 13.4241C66.8188 13.7785 66.8804 14.1836 66.8804 14.6266V19.3355H65.1039V14.8418C65.1039 14.2848 64.9682 13.8924 64.7214 13.6646C64.4747 13.4241 64.1539 13.3102 63.7714 13.3102C63.389 13.3102 63.0559 13.4241 62.7968 13.6646C62.5377 13.8924 62.402 14.2975 62.402 14.8418V19.3355H60.6378V14.614C60.6378 14.1709 60.5761 13.8418 60.4527 13.6519C60.3293 13.4494 60.1196 13.2469 59.7988 13.0443L60.7118 11.5127C61.0202 11.6519 61.2916 11.8165 61.5137 12.019C61.7358 12.2089 61.9208 12.4494 62.0566 12.6899" fill="white"/>
<path d="M80.2912 17.8291H78.7984V19.3481H80.2912V17.8291Z" fill="white"/>
<path d="M72.5926 1.36076C71.6673 0.740506 71.0011 0.5 70.5199 0.5C70.0758 0.5 69.7797 0.71519 69.5699 1.03165C69.1505 1.68987 69.2862 2.52532 71.0751 3.72785C72.2595 4.51266 75.2944 5.43671 77.108 6.14557C75.7386 4.71519 73.7646 2.15823 72.5926 1.36076Z" fill="white"/>
<path d="M83.1905 8.49994C82.0061 7.70247 78.9465 6.86703 77.1205 6.14551C78.4776 7.58855 80.4886 10.0822 81.673 10.867C82.5983 11.4873 83.2522 11.7278 83.7457 11.7278C84.2022 11.7278 84.4859 11.5126 84.6833 11.1961C85.1028 10.5506 84.9671 9.70247 83.1905 8.48728" fill="white"/>
<path d="M90.0501 14.0067C89.2111 12.8421 86.6326 10.9307 85.1645 9.61426C85.9541 11.4497 86.9904 14.513 87.8294 15.6775C89.0878 17.4497 89.9144 17.5383 90.5312 17.0826C91.1481 16.6143 91.3208 15.7788 90.0624 14.0067" fill="white"/>
<path d="M85.1645 9.6015C84.3872 7.77871 83.4003 4.66479 82.5737 3.50023C81.3029 1.72808 80.4763 1.63947 79.8595 2.10783C79.2426 2.56352 79.0699 3.41162 80.3406 5.17112C81.1672 6.33567 83.7087 8.28504 85.1645 9.6015Z" fill="white"/>
</g>
<defs>
<clipPath id="clip0_205_3404">
<rect width="91" height="25" fill="white" transform="translate(0 0.5)"/>
</clipPath>
</defs>
</svg>
